<svg width="23" height="18" viewBox="0 0 23 18" fill="none" xmlns="http://www.w3.org/2000/svg">
<path fill-rule="evenodd" clip-rule="evenodd" d="M11.0769 0C11.4021 0 11.7073 0.155966 11.8963 0.418762L16.4312 6.72343L20.6965 4.60557C21.0432 4.43342 21.4586 4.47418 21.7647 4.71038C22.0708 4.94658 22.2132 5.33627 22.1308 5.71243L19.6133 17.2124C19.5127 17.6721 19.1031 18 18.6293 18H3.5245C3.05079 18 2.64112 17.6721 2.54049 17.2124L0.0230192 5.71243C-0.0593252 5.33627 0.0830604 4.94658 0.389142 4.71038C0.695225 4.47418 1.11066 4.43342 1.45737 4.60557L5.72269 6.72343L10.2575 0.418762C10.4465 0.155966 10.7517 0 11.0769 0ZM8.05592 11.5C8.05592 9.84317 9.40847 8.5 11.0769 8.5C12.7453 8.5 14.0979 9.84317 14.0979 11.5C14.0979 13.1568 12.7453 14.5 11.0769 14.5C9.40847 14.5 8.05592 13.1568 8.05592 11.5Z" fill="url(#paint0_linear_2432_5282)"/>
<defs>
<linearGradient id="paint0_linear_2432_5282" x1="-0.138462" y1="-2.025" x2="17.1055" y2="21.5859" gradientUnits="userSpaceOnUse">
<stop offset="0.060883" stop-color="#FFAE00"/>
<stop offset="1" stop-color="#FFCC5E"/>
</linearGradient>
</defs>
</svg>
