<svg width="18" height="18" viewBox="0 0 18 18" fill="none" xmlns="http://www.w3.org/2000/svg">
<g clip-path="url(#clip0_2560_2086)">
<path d="M17.9662 15.989C17.9369 15.8949 17.8894 15.8075 17.8264 15.7318C17.7634 15.6561 17.6861 15.5935 17.5989 15.5477C17.5117 15.5019 17.4163 15.4737 17.3182 15.4647C17.2201 15.4557 17.1212 15.4662 17.0272 15.4955L16.0522 15.7955L15.3539 13.7427C16.0873 13.3312 16.6594 12.683 16.9765 11.9041C17.2937 11.1252 17.3372 10.2618 17.0999 9.45495L15.7177 5.3487C15.5437 4.78812 15.1591 4.31685 14.6448 4.03402C14.1304 3.75119 13.5265 3.67884 12.9599 3.8322L10.0709 4.6377C9.6566 4.75298 9.28459 4.98588 8.9999 5.3082C8.71522 4.98588 8.34321 4.75298 7.9289 4.6377L5.03915 3.8322C4.47671 3.67706 3.87602 3.74585 3.36322 4.02414C2.85041 4.30243 2.46536 4.76857 2.2889 5.3247L0.888655 9.49245C0.660669 10.2986 0.71173 11.1582 1.03356 11.9317C1.35539 12.7053 1.9291 13.3474 2.66165 13.754L1.95365 15.8L0.974905 15.4955C0.880845 15.4659 0.781887 15.4552 0.68368 15.4639C0.585474 15.4726 0.489941 15.5005 0.402538 15.5461C0.315135 15.5918 0.237573 15.6541 0.17428 15.7297C0.110986 15.8053 0.063202 15.8926 0.0336545 15.9867C0.00410713 16.0808 -0.00662461 16.1797 0.00207206 16.2779C0.0107687 16.3761 0.0387235 16.4717 0.0843403 16.5591C0.129957 16.6465 0.192343 16.724 0.267935 16.7873C0.343527 16.8506 0.430845 16.8984 0.524905 16.928L2.1449 17.4312C2.15615 17.4312 2.1629 17.444 2.17415 17.4485C2.1854 17.453 2.21315 17.453 2.23265 17.4582L3.8684 17.966C4.05837 18.025 4.26401 18.0062 4.44011 17.9137C4.61621 17.8211 4.74833 17.6624 4.8074 17.4725C4.86648 17.2825 4.84768 17.0768 4.75513 16.9007C4.66258 16.7246 4.50387 16.5925 4.3139 16.5335L3.3869 16.2447L4.08815 14.2197C4.22723 14.2376 4.3672 14.2476 4.5074 14.2497C5.31828 14.2477 6.10666 13.9829 6.75435 13.4951C7.40205 13.0072 7.87416 12.3225 8.0999 11.5437L8.9999 8.8767L9.88715 11.5017C10.1059 12.2904 10.5766 12.986 11.2276 13.4821C11.8785 13.9783 12.6739 14.2479 13.4924 14.2497C13.6381 14.2483 13.7836 14.2383 13.9282 14.2197L14.6167 16.2447L13.6837 16.5342C13.4937 16.5933 13.335 16.7254 13.2424 16.9015C13.1499 17.0776 13.1311 17.2832 13.1902 17.4732C13.2492 17.6632 13.3814 17.8219 13.5574 17.9144C13.7335 18.007 13.9392 18.0258 14.1292 17.9667L15.7604 17.4605C15.7799 17.4552 15.8002 17.4605 15.8197 17.4507C15.8392 17.441 15.8392 17.4365 15.8512 17.432L17.4727 16.9287C17.5668 16.8995 17.6543 16.852 17.73 16.7889C17.8058 16.7258 17.8684 16.6484 17.9142 16.5611C17.9601 16.4739 17.9883 16.3784 17.9972 16.2802C18.0061 16.182 17.9955 16.0831 17.9662 15.989V15.989ZM10.0177 6.4437C10.0654 6.35582 10.1304 6.27849 10.2087 6.21637C10.2871 6.15424 10.3772 6.10861 10.4737 6.0822L13.3619 5.27745C13.4264 5.25941 13.493 5.25007 13.5599 5.2497C13.7249 5.25144 13.8848 5.3063 14.0162 5.40614C14.1475 5.50598 14.2431 5.64548 14.2889 5.80395L14.8597 7.4997H10.1174L9.95615 7.02195C9.92739 6.92633 9.91802 6.82592 9.92858 6.72662C9.93914 6.62733 9.96943 6.53114 10.0177 6.4437V6.4437ZM4.4384 5.2497C4.50556 5.24983 4.5724 5.25891 4.63715 5.2767L7.52615 6.0822C7.71701 6.13484 7.87932 6.26081 7.97767 6.43264C8.07601 6.60447 8.10243 6.80822 8.05115 6.99945L7.8824 7.4997H3.14015L3.71765 5.7822C3.76532 5.62819 3.86096 5.49345 3.99063 5.39765C4.12029 5.30185 4.27719 5.25001 4.4384 5.2497V5.2497ZM6.6689 11.0997C6.54911 11.5278 6.30518 11.9108 5.9679 12.2004C5.63062 12.49 5.21512 12.6732 4.77382 12.7269C4.33252 12.7806 3.88521 12.7023 3.48834 12.502C3.09147 12.3017 2.76284 11.9884 2.5439 11.6015C2.25405 11.096 2.17535 10.4966 2.3249 9.93345L2.6354 8.9997H7.3769L6.6689 11.0997ZM12.3929 12.4557C12.1301 12.3066 11.8998 12.1064 11.7155 11.867C11.5312 11.6275 11.3966 11.3537 11.3197 11.0615L10.6229 8.9997H15.3652L15.6652 9.8952C15.7848 10.3241 15.7746 10.7788 15.6357 11.2019C15.4968 11.6249 15.2356 11.9972 14.885 12.2717C14.5344 12.5462 14.1102 12.7105 13.6662 12.7437C13.2222 12.777 12.7783 12.6778 12.3907 12.4587L12.3929 12.4557Z" fill="#C4C4C4"/>
<path d="M11.6648 2.92483C11.7533 2.96935 11.8498 2.99588 11.9487 3.00288C12.0476 3.00988 12.1468 2.99722 12.2408 2.96563C12.3347 2.93404 12.4215 2.88414 12.496 2.81882C12.5705 2.7535 12.6314 2.67406 12.675 2.58508L13.425 1.08508C13.514 0.907049 13.5285 0.700993 13.4655 0.512237C13.4025 0.323482 13.2671 0.167489 13.089 0.0785751C12.911 -0.0103388 12.705 -0.0248901 12.5162 0.0381221C12.3274 0.101134 12.1715 0.236548 12.0825 0.414575L11.3325 1.91457C11.2877 2.00267 11.2608 2.09875 11.2533 2.19729C11.2457 2.29583 11.2578 2.39489 11.2886 2.48877C11.3195 2.58265 11.3686 2.6695 11.4332 2.74434C11.4977 2.81917 11.5765 2.88051 11.6648 2.92483V2.92483Z" fill="#C4C4C4"/>
<path d="M5.32885 2.58508C5.41777 2.7636 5.57396 2.89949 5.76306 2.96285C5.8567 2.99423 5.9556 3.00685 6.05412 3.00001C6.15263 2.99316 6.24883 2.96698 6.33723 2.92295C6.42562 2.87892 6.50448 2.81792 6.5693 2.74342C6.63412 2.66891 6.68363 2.58237 6.71501 2.48874C6.74638 2.3951 6.75901 2.2962 6.75216 2.19769C6.74531 2.09917 6.71913 2.00297 6.6751 1.91457L5.9251 0.414575C5.88108 0.326425 5.82012 0.24781 5.74571 0.183218C5.67131 0.118626 5.5849 0.0693226 5.49144 0.0381221C5.30269 -0.0248901 5.09663 -0.0103388 4.9186 0.0785751C4.74058 0.167489 4.60516 0.323482 4.54215 0.512237C4.47914 0.700993 4.49369 0.907049 4.5826 1.08508L5.32885 2.58508Z" fill="#C4C4C4"/>
<path d="M9.00013 3C9.19904 3 9.38981 2.92098 9.53046 2.78033C9.67111 2.63968 9.75013 2.44891 9.75013 2.25V0.75C9.75013 0.551088 9.67111 0.360322 9.53046 0.21967C9.38981 0.0790176 9.19904 0 9.00013 0C8.80121 0 8.61045 0.0790176 8.46979 0.21967C8.32914 0.360322 8.25012 0.551088 8.25012 0.75V2.25C8.25012 2.44891 8.32914 2.63968 8.46979 2.78033C8.61045 2.92098 8.80121 3 9.00013 3Z" fill="#C4C4C4"/>
</g>
<defs>
<clipPath id="clip0_2560_2086">
<rect width="18" height="18" fill="white"/>
</clipPath>
</defs>
</svg>
