<svg width="18" height="18" viewBox="0 0 18 18" fill="none" xmlns="http://www.w3.org/2000/svg">
<g clip-path="url(#clip0_2560_2435)">
<path d="M8.99919 9C9.59253 9 10.1725 8.82405 10.6659 8.49441C11.1592 8.16476 11.5438 7.69623 11.7708 7.14805C11.9979 6.59987 12.0573 5.99667 11.9415 5.41473C11.8258 4.83279 11.5401 4.29824 11.1205 3.87868C10.7009 3.45912 10.1664 3.1734 9.58446 3.05764C9.00251 2.94189 8.39931 3.0013 7.85114 3.22836C7.30296 3.45542 6.83442 3.83994 6.50478 4.33329C6.17513 4.82664 5.99919 5.40666 5.99919 6C5.99919 6.79565 6.31526 7.55871 6.87787 8.12132C7.44048 8.68393 8.20354 9 8.99919 9ZM8.99919 4.5C9.29586 4.5 9.58587 4.58797 9.83254 4.7528C10.0792 4.91762 10.2715 5.15189 10.385 5.42597C10.4985 5.70006 10.5282 6.00166 10.4704 6.29264C10.4125 6.58361 10.2696 6.85088 10.0598 7.06066C9.85007 7.27044 9.58279 7.4133 9.29182 7.47118C9.00085 7.52906 8.69925 7.49935 8.42516 7.38582C8.15107 7.27229 7.9168 7.08003 7.75198 6.83336C7.58716 6.58668 7.49919 6.29667 7.49919 6C7.49919 5.60218 7.65722 5.22064 7.93853 4.93934C8.21983 4.65804 8.60136 4.5 8.99919 4.5ZM15.4942 6.86775L14.9549 6.6885C15.052 5.84844 14.9703 4.99736 14.7154 4.19106C14.4604 3.38477 14.0379 2.64147 13.4756 2.00992C12.9132 1.37836 12.2237 0.87282 11.4522 0.526435C10.6808 0.18005 9.84483 0.000650611 8.99919 0C8.14251 0.000330727 7.29584 0.184271 6.51625 0.539426C5.73665 0.894582 5.04224 1.4127 4.47978 2.05888C3.91732 2.70506 3.49989 3.46428 3.25562 4.2854C3.01134 5.10652 2.9459 5.97045 3.06369 6.819C2.34596 6.95282 1.68228 7.29144 1.15269 7.794C0.786068 8.14256 0.494614 8.56242 0.296246 9.02777C0.0978777 9.49313 -0.00321352 9.99414 -0.000812712 10.5V13.5563C0.000763485 14.3672 0.264531 15.156 0.75113 15.8048C1.23773 16.4536 1.92107 16.9277 2.69919 17.1562L4.85169 17.8312C5.21323 17.9438 5.58979 18.0007 5.96844 18C6.31193 17.9996 6.65378 17.9526 6.98469 17.8605L11.3197 16.578C11.7059 16.4726 12.1132 16.4726 12.4994 16.578L14.2897 17.178C14.7309 17.2854 15.1908 17.2912 15.6346 17.1951C16.0784 17.0989 16.4945 16.9032 16.8517 16.6228C17.2089 16.3424 17.4978 15.9845 17.6965 15.5762C17.8953 15.1679 17.9988 14.7199 17.9992 14.2657V10.404C17.9975 9.62806 17.7558 8.87163 17.3074 8.23841C16.8589 7.60519 16.2256 7.12616 15.4942 6.867V6.86775ZM5.81769 2.8215C6.23488 2.40262 6.73068 2.07024 7.27665 1.84345C7.82261 1.61666 8.40799 1.49991 8.99919 1.49991C9.59038 1.49991 10.1758 1.61666 10.7217 1.84345C11.2677 2.07024 11.7635 2.40262 12.1807 2.8215C13.0223 3.66836 13.4954 4.81336 13.4969 6.0073C13.4985 7.20124 13.0284 8.34747 12.1889 9.1965L9.52419 11.7878C9.38511 11.9241 9.19809 12.0005 9.00331 12.0005C8.80853 12.0005 8.62152 11.9241 8.48244 11.7878L5.81769 9.20775C4.97429 8.35904 4.50092 7.21113 4.50092 6.01462C4.50092 4.81812 4.97429 3.67021 5.81769 2.8215V2.8215ZM16.4992 14.2657C16.4996 14.4929 16.4483 14.7172 16.349 14.9215C16.2497 15.1258 16.1051 15.3048 15.9262 15.4448C15.7571 15.5807 15.5602 15.6777 15.3495 15.7289C15.1387 15.7801 14.9192 15.7842 14.7067 15.741L12.9479 15.15C12.2827 14.9589 11.5776 14.9547 10.9102 15.138L6.57219 16.419C6.15539 16.534 5.7143 16.5264 5.30169 16.3973L3.13119 15.7222C2.66143 15.5864 2.24841 15.3018 1.95414 14.9113C1.65987 14.5207 1.50023 14.0453 1.49919 13.5563V10.5C1.4975 10.1968 1.55784 9.89653 1.6765 9.61755C1.79516 9.33857 1.96963 9.08681 2.18919 8.87775C2.53288 8.5502 2.9707 8.33876 3.44094 8.27325C3.74327 9.02263 4.19347 9.70343 4.76469 10.275L7.43994 12.8647C7.85807 13.2742 8.41998 13.5035 9.00519 13.5035C9.59039 13.5035 10.1523 13.2742 10.5704 12.8647L13.2427 10.2675C13.841 9.66678 14.3045 8.94553 14.6024 8.15175L15.0052 8.28525C15.442 8.44176 15.8198 8.72922 16.0872 9.1084C16.3546 9.48758 16.4984 9.94003 16.4992 10.404V14.2657Z" fill="#C4C4C4"/>
</g>
<defs>
<clipPath id="clip0_2560_2435">
<rect width="18" height="18" fill="white"/>
</clipPath>
</defs>
</svg>
