<svg width="24" height="24" viewBox="0 0 24 24" fill="none" xmlns="http://www.w3.org/2000/svg">
<path d="M12 8.00002C12.5523 8.00002 13 7.5523 13 7.00001C13 6.44772 12.5523 6 12 6C11.4477 6 11 6.44772 11 7.00001C11 7.5523 11.4477 8.00002 12 8.00002Z" fill="#1D89E4"/>
<path d="M12 13C12.5523 13 13 12.5523 13 12C13 11.4477 12.5523 11 12 11C11.4477 11 11 11.4477 11 12C11 12.5523 11.4477 13 12 13Z" fill="#1D89E4"/>
<path d="M12 18C12.5523 18 13 17.5523 13 17C13 16.4477 12.5523 16 12 16C11.4477 16 11 16.4477 11 17C11 17.5523 11.4477 18 12 18Z" fill="#1D89E4"/>
</svg>
