<svg width="20" height="20" viewBox="0 0 20 20" fill="none" xmlns="http://www.w3.org/2000/svg">
<g clip-path="url(#clip0_2524_2595)">
<path d="M15.594 9.99983H11.6665C11.2245 9.99983 10.8006 9.82424 10.488 9.51168C10.1755 9.19912 9.99987 8.77519 9.99987 8.33317V4.39483C10.001 4.01149 9.91397 3.63301 9.74548 3.28867C9.577 2.94433 9.33158 2.64335 9.02821 2.409C8.74074 2.18134 8.40478 2.02281 8.0463 1.94565C7.68781 1.86849 7.31638 1.87477 6.96071 1.964C4.94042 2.46551 3.15181 3.64155 1.89068 5.29764C0.629551 6.95372 -0.0285642 8.99065 0.0251736 11.0716C0.0789115 13.1525 0.841283 15.1527 2.18621 16.7415C3.53114 18.3303 5.37806 19.4124 7.42154 19.809C9.71913 20.2488 12.0979 19.7935 14.0707 18.5364C16.0436 17.2794 17.4612 15.3156 18.0332 13.0473C18.1228 12.6912 18.1293 12.3192 18.0523 11.9602C17.9753 11.6011 17.8168 11.2646 17.589 10.9765C17.3519 10.6735 17.0492 10.4283 16.7037 10.2591C16.3581 10.09 15.9788 10.0013 15.594 9.99983ZM16.4174 12.6398C16.0983 13.9247 15.4437 15.1018 14.5204 16.0507C13.5972 16.9996 12.4385 17.6862 11.1628 18.0403C9.88714 18.3945 8.5403 18.4034 7.26004 18.0662C5.97978 17.7291 4.81206 17.0579 3.8763 16.1214C2.94054 15.1848 2.27033 14.0165 1.93422 12.736C1.59812 11.4555 1.60818 10.1086 1.96337 8.83326C2.31857 7.55788 3.00615 6.39974 3.95579 5.47729C4.90543 4.55483 6.08306 3.90117 7.36821 3.58317C7.47815 3.5557 7.593 3.55435 7.70356 3.57924C7.81411 3.60413 7.91731 3.65457 8.00487 3.7265C8.10828 3.80534 8.19214 3.90694 8.24995 4.02342C8.30776 4.1399 8.33796 4.26813 8.33821 4.39817V8.33317C8.33821 9.21722 8.6894 10.0651 9.31452 10.6902C9.93964 11.3153 10.7875 11.6665 11.6715 11.6665H15.5982C15.7294 11.667 15.8587 11.6973 15.9765 11.755C16.0943 11.8128 16.1974 11.8965 16.2782 11.9998C16.349 12.0886 16.3984 12.1926 16.4224 12.3036C16.4464 12.4146 16.4444 12.5297 16.4165 12.6398H16.4174Z" fill="#71839B"/>
<path d="M19.7093 6.20508C19.3257 4.79464 18.5804 3.50883 17.5472 2.47489C16.514 1.44096 15.2287 0.694734 13.8185 0.310075C13.6707 0.270333 13.5183 0.250161 13.3652 0.250075C13.145 0.247983 12.9265 0.289548 12.7225 0.372369C12.5185 0.45519 12.3329 0.577624 12.1764 0.732597C12.02 0.88757 11.8958 1.07201 11.811 1.27526C11.7263 1.47851 11.6827 1.69653 11.6827 1.91674V5.83341C11.6827 6.49645 11.9461 7.13233 12.4149 7.60118C12.8838 8.07002 13.5196 8.33341 14.1827 8.33341H18.1152C18.3724 8.33093 18.6256 8.26919 18.8551 8.15297C19.0846 8.03676 19.2842 7.8692 19.4384 7.66331C19.5926 7.45743 19.6973 7.21876 19.7443 6.96586C19.7912 6.71295 19.7793 6.45261 19.7093 6.20508ZM17.6277 6.66674H14.1793C13.9583 6.66674 13.7464 6.57894 13.5901 6.42266C13.4338 6.26638 13.346 6.05442 13.346 5.83341L13.3393 1.92257C13.3454 1.91816 13.3527 1.91557 13.3602 1.91508H13.3818C14.5169 2.22431 15.5511 2.82583 16.381 3.65961C17.211 4.49339 17.8078 5.53026 18.1118 6.66674H17.6277Z" fill="#71839B"/>
</g>
<defs>
<clipPath id="clip0_2524_2595">
<rect width="20" height="20" fill="white"/>
</clipPath>
</defs>
</svg>
