<svg width="20" height="20" viewBox="0 0 20 20" fill="none" xmlns="http://www.w3.org/2000/svg">
<g clip-path="url(#clip0_2524_2575)">
<path d="M5.83333 0H3.33333C1.49238 0 0 1.49238 0 3.33333V5.83333C0 7.67428 1.49238 9.16667 3.33333 9.16667H5.83333C7.67428 9.16667 9.16667 7.67428 9.16667 5.83333V3.33333C9.16667 1.49238 7.67428 0 5.83333 0Z" fill="#1D89E4"/>
<path d="M16.6665 0H14.1665C12.3256 0 10.8332 1.49239 10.8332 3.33334V5.83334C10.8332 7.67429 12.3256 9.16667 14.1665 9.16667H16.6665C18.5075 9.16667 19.9999 7.67429 19.9999 5.83334V3.33334C19.9999 1.49239 18.5075 0 16.6665 0Z" fill="#1D89E4"/>
<path d="M5.83333 10.8335H3.33333C1.49238 10.8335 -7.62939e-06 12.3259 -7.62939e-06 14.1668V16.6668C-7.62939e-06 18.5078 1.49238 20.0002 3.33333 20.0002H5.83333C7.67428 20.0002 9.16666 18.5078 9.16666 16.6668V14.1668C9.16666 12.3259 7.67428 10.8335 5.83333 10.8335Z" fill="#1D89E4"/>
<path d="M16.6665 10.8335H14.1665C12.3256 10.8335 10.8332 12.3259 10.8332 14.1668V16.6668C10.8332 18.5078 12.3256 20.0002 14.1665 20.0002H16.6665C18.5075 20.0002 19.9999 18.5078 19.9999 16.6668V14.1668C19.9999 12.3259 18.5075 10.8335 16.6665 10.8335Z" fill="#1D89E4"/>
</g>
<defs>
<clipPath id="clip0_2524_2575">
<rect width="20" height="20" fill="white"/>
</clipPath>
</defs>
</svg>
