<svg width="20" height="20" viewBox="0 0 20 20" fill="none" xmlns="http://www.w3.org/2000/svg">
<path d="M10.417 7.91598C12.917 10.8326 12.0837 13.7493 7.50034 17.916H9.167M18.3337 6.66584C9.167 3.33263 11.667 10.416 4.58367 9.16617L3.79276 6.21475M12.5003 6.24931C14.5837 9.16598 15.8337 11.2493 15.0003 17.916H16.667M3.79276 6.21475C4.59773 5.99906 5.1151 4.71013 4.75563 3.36856C4.39615 2.027 3.44743 1.70606 2.64252 1.92173C1.83762 2.13741 1.17645 2.88991 1.5359 4.23138C1.89534 5.57286 2.98779 6.43044 3.79276 6.21475ZM11.2503 3.33265C11.2503 4.25312 10.5041 4.99933 9.58364 4.99935C8.66316 4.99937 7.91699 4.25319 7.91701 3.33272C7.91702 2.41224 8.66323 1.66603 9.5837 1.66602C10.5042 1.666 11.2504 2.41217 11.2503 3.33265Z" stroke="#636363" stroke-width="1.5" stroke-linecap="round" stroke-linejoin="round"/>
</svg>
