<svg width="94" height="94" viewBox="0 0 94 94" fill="none" xmlns="http://www.w3.org/2000/svg">
<path d="M66.6392 26.983C62.8945 23.2383 58.3826 20.7284 53.6094 19.4533C45.8659 17.3847 37.4349 18.5659 30.4766 22.997M17.3026 43.3282C16.6038 48.1218 17.1033 53.0565 18.8009 57.6485M40.0235 75.9918C47.3539 77.5445 55.1679 76.243 61.6875 72.0873M70.8487 62.7892C73.0874 59.1579 74.4536 55.141 74.9471 51.0391" stroke="#D9E5FF" stroke-width="3" stroke-linecap="round"/>
<circle cx="46.2452" cy="42.7773" r="4.58984" stroke="#D0D4E5" stroke-width="3.5"/>
<path d="M37.9835 56.5469C37.9835 53.505 40.4494 51.0391 43.4913 51.0391H48.9991C52.041 51.0391 54.5069 53.505 54.5069 56.5469" stroke="#D0D4E5" stroke-width="3.5" stroke-linecap="round"/>
<circle cx="26.1519" cy="62.7528" r="4.73717" stroke="#88A8D3" stroke-width="3.00068"/>
<path d="M17.625 76.9644C17.625 73.8249 20.1701 71.2798 23.3096 71.2798H28.9942C32.1337 71.2798 34.6788 73.8249 34.6788 76.9644" stroke="#88A8D3" stroke-width="3.00068" stroke-linecap="round"/>
<circle cx="21.0113" cy="24.5653" r="4.73717" stroke="#88A8D3" stroke-width="3.00068"/>
<path d="M12.4844 38.7769C12.4844 35.6374 15.0295 33.0923 18.169 33.0923H23.8536C26.9931 33.0923 29.5382 35.6374 29.5382 38.7769" stroke="#88A8D3" stroke-width="3.00068" stroke-linecap="round"/>
<circle cx="74.6207" cy="35.5809" r="4.73717" stroke="#88A8D3" stroke-width="3.00068"/>
<path d="M66.0938 49.7925C66.0938 46.653 68.6388 44.1079 71.7784 44.1079H77.463C80.6025 44.1079 83.1476 46.653 83.1476 49.7925" stroke="#88A8D3" stroke-width="3.00068" stroke-linecap="round"/>
<path fill-rule="evenodd" clip-rule="evenodd" d="M61.9339 31.8771C53.2762 23.2194 39.2393 23.2194 30.5817 31.8771C21.924 40.5348 21.924 54.5716 30.5817 63.2293C38.6056 71.2533 51.25 71.8407 59.9504 64.9914L72.1612 77.2022C73.2124 78.2534 74.9166 78.2534 75.9678 77.2022C77.019 76.1511 77.019 74.4468 75.9678 73.3956L63.7496 61.1775C70.5421 52.4793 69.9369 39.88 61.9339 31.8771ZM34.2166 35.512C40.8668 28.8619 51.6488 28.8619 58.299 35.512C64.9491 42.1622 64.9491 52.9442 58.299 59.5944C51.6488 66.2445 40.8668 66.2445 34.2166 59.5944C27.5665 52.9442 27.5665 42.1622 34.2166 35.512Z" fill="#184680"/>
</svg>
