<svg width="18" height="18" viewBox="0 0 18 18" fill="none" xmlns="http://www.w3.org/2000/svg">
<g clip-path="url(#clip0_2560_2122)">
<path d="M0.749962 18.0005C0.948858 18.0005 1.13959 17.9215 1.28021 17.7808L6.24446 12.8165L7.18046 13.7855C7.88593 14.531 8.85825 14.9664 9.88421 14.996C10.2262 14.9971 10.5659 14.9395 10.8885 14.8258C11.3869 14.6542 11.8247 14.3416 12.1489 13.9259C12.4731 13.5103 12.6697 13.0095 12.7147 12.4843C12.7961 11.7237 12.7397 10.9546 12.5482 10.214L12.3877 9.43254C12.3573 9.30757 12.3595 9.17688 12.3942 9.05302C12.4289 8.92916 12.4948 8.81631 12.5857 8.72529L13.776 7.53429C13.8229 7.48716 13.8864 7.46024 13.953 7.45929C13.9763 7.45495 14.0004 7.45721 14.0225 7.46582C14.0447 7.47444 14.0639 7.48906 14.0782 7.50804C14.4549 7.90753 14.9617 8.15961 15.5076 8.219C16.0535 8.27838 16.6027 8.14118 17.0565 7.83204C17.3227 7.64221 17.5445 7.39661 17.7061 7.11235C17.8678 6.82809 17.9656 6.512 17.9927 6.18609C18.0197 5.86019 17.9754 5.5323 17.8628 5.22527C17.7502 4.91824 17.572 4.63944 17.3407 4.40829L13.65 0.71604C13.271 0.327616 12.7676 0.0847537 12.2277 0.0299147C11.6878 -0.0249243 11.1458 0.111749 10.6965 0.41604C10.4301 0.605815 10.2084 0.851369 10.0466 1.1356C9.88485 1.41983 9.787 1.73591 9.75987 2.06181C9.73274 2.38772 9.77698 2.71562 9.88952 3.02269C10.002 3.32975 10.1802 3.60859 10.4115 3.83979L10.4685 3.89679C10.5114 3.94006 10.5355 3.99856 10.5355 4.05954C10.5355 4.12052 10.5114 4.17902 10.4685 4.22229L9.26846 5.42229C9.17641 5.51415 9.06205 5.5805 8.93661 5.61482C8.81117 5.64913 8.67896 5.65025 8.55296 5.61804L7.94021 5.46129C7.1865 5.26445 6.40345 5.20525 5.62871 5.28654C5.07923 5.34345 4.55747 5.55626 4.12494 5.8999C3.69241 6.24353 3.36714 6.70366 3.18746 7.22604C2.99138 7.76286 2.95272 8.34451 3.07602 8.90255C3.19932 9.4606 3.47946 9.97181 3.88346 10.376L5.20196 11.741L0.219712 16.7203C0.114855 16.8252 0.0434504 16.9588 0.0145247 17.1043C-0.014401 17.2497 0.00045125 17.4005 0.0572038 17.5375C0.113956 17.6746 0.210061 17.7917 0.333368 17.8741C0.456676 17.9565 0.60165 18.0005 0.749962 18.0005ZM4.60121 7.72554C4.68573 7.47003 4.8425 7.24449 5.05255 7.07624C5.26259 6.90799 5.51691 6.80424 5.78471 6.77754C5.95738 6.75957 6.13086 6.75056 6.30446 6.75054C6.72995 6.75056 7.15367 6.80526 7.56521 6.91329L8.18246 7.07079C8.56063 7.16647 8.95713 7.16252 9.33331 7.05934C9.7095 6.95616 10.0525 6.75726 10.329 6.48204L11.529 5.28204C11.8528 4.95728 12.0346 4.51739 12.0346 4.05879C12.0346 3.60019 11.8528 3.1603 11.529 2.83554L11.472 2.77854C11.3943 2.70107 11.3346 2.6075 11.297 2.50444C11.2595 2.40138 11.245 2.29134 11.2545 2.18207C11.2641 2.07279 11.2976 1.96695 11.3525 1.872C11.4074 1.77706 11.4825 1.69531 11.5725 1.63254C11.7325 1.53566 11.921 1.49693 12.1063 1.52289C12.2916 1.54885 12.4622 1.63791 12.5895 1.77504L16.2825 5.46804C16.3601 5.54551 16.4198 5.63908 16.4574 5.74214C16.495 5.8452 16.5095 5.95524 16.4999 6.06451C16.4903 6.17379 16.4569 6.27963 16.4019 6.37458C16.347 6.46952 16.2719 6.55127 16.182 6.61404C16.0202 6.71225 15.8292 6.75099 15.642 6.72362C15.4547 6.69624 15.2829 6.60445 15.156 6.46404C15.0016 6.30493 14.817 6.17836 14.613 6.09179C14.4089 6.00523 14.1896 5.96043 13.968 5.96004C13.5004 5.96217 13.052 6.14615 12.7177 6.47304L11.5282 7.66329C11.2581 7.93358 11.0613 8.2682 10.9563 8.63561C10.8513 9.00302 10.8417 9.39111 10.9282 9.76329L11.0925 10.5568C11.2438 11.1354 11.2898 11.7364 11.2282 12.3313C11.2103 12.5739 11.1215 12.8059 10.9728 12.9984C10.8241 13.191 10.6221 13.3356 10.392 13.4143C10.0083 13.5152 9.60391 13.5053 9.22562 13.3858C8.84733 13.2664 8.51061 13.0422 8.25446 12.7393L4.95446 9.32679C4.74869 9.12157 4.60605 8.86167 4.54344 8.57788C4.48084 8.29408 4.50088 7.99829 4.60121 7.72554V7.72554Z" fill="#C4C4C4"/>
</g>
<defs>
<clipPath id="clip0_2560_2122">
<rect width="18" height="18" fill="white"/>
</clipPath>
</defs>
</svg>
